Patient4_TMGait_0pt3_03_left_13_EMG.mot
version=1
nRows=16
nColumns=33
inDegrees=no
endheader
time	1LAddLong	2LGlutMax	3LGlutMed	4LIliopsoas	5LSemiMemb	6LBicFemLong	7LRecFem	8LVastMed	9LVastLat	10LGasMed	11LTibAnt	12lTibPost	13LPeroneusLong	14LSol	15LExtDigLong	16LFlexDigLong	17RAddLong	18RGlutMax	19RGlutMed	20RIliopsoas	21RSemiMemb	22RBicFemLong	23RRecFem	24RVastMed	25RVastLat	26RGasMed	27RTibAnt	28RTibPost	29RPeroneusLong	30RSol	31RExtDigLong	32RFlexDigLong
24.94	-0.004272	-0.066986	0.027466	0.008087	0.007019	-0.014191	-0.1091	-0.000458	-0.034637	-0.005035	0.030212	-0.019531	0.24094	-0.16174	-0.004272	0.16754	-0.024872	-0.082703	-0.30533	-0.014496	-0.038757	0.029144	0.048676	0.008392	0.065765	0.005188	0.021362	0.001068	-0.12161	0.032043	-0.002747	-0.005493
24.941	0.002747	-0.10315	0.004425	0.001678	0.000916	-0.00824	-0.058899	-0.005188	0.17502	0.024414	0.021362	-0.000153	0.072174	-0.21927	-0.009155	-0.12054	-0.018616	-0.086365	-0.31632	0.29251	-0.047302	-0.026093	0.033264	-0.013885	0.052185	0.00885	0.001526	-0.000916	-0.21316	0.01297	-0.000763	-0.002899
24.942	0.002289	-0.11597	0.015717	-0.001984	0.01358	0.07019	-0.050049	-0.01236	0.23529	0.015259	0.021667	0.002136	0.10529	-0.17075	-0.016785	-0.10071	-0.04303	-0.075989	-0.22659	0.33341	-0.067902	0.011139	0.031738	-0.027008	0.021057	0.013733	0.017242	0.000305	0.17502	-0.007935	-0.002441	-0.007019
24.943	0.005493	-0.059204	0.040741	0.001984	0.051575	0.088196	-0.043793	-0.024414	0.076294	0.048828	0.011749	0.018158	0.065613	-0.081787	-0.043488	-0.037537	-0.037079	-0.081177	-0.16892	0.23209	-0.060425	0.006714	0.037689	-0.041046	0.021515	0.009766	-0.024261	0.001221	0.4599	0.026245	0.001068	-0.004578
24.944	0.013885	-0.043945	0.005341	0.009918	0.052032	0.073547	-0.030975	-0.017853	0.07431	0.11047	0.007935	0.004883	0.061188	-0.13382	-0.036926	-0.009308	-0.019684	-0.045471	-0.23575	0.13473	-0.046234	-0.020447	0.059357	-0.035095	-0.007324	0.003815	-0.12131	-0.001373	0.4425	0.063171	-0.004272	-0.011139
24.945	0.008545	-0.042572	0.014038	0.001526	0.044403	0.075226	0.000458	-0.011444	0.14481	0.007019	0.015411	0.008087	0.11826	-0.036774	-0.010681	0.016174	-0.024872	-0.053406	-0.3894	0.039978	-0.030518	-0.031891	0.050812	-0.027924	-0.066833	0.00412	-0.17349	0.000305	0.24887	0.070343	-0.004578	-0.00885
24.946	0.009766	-0.055237	0.027771	0.009766	0.056458	0.091858	-0.04303	-0.020905	0.088043	-0.018768	-0.002289	0.012665	0.28168	0.16068	-0.001221	0.013275	-0.001373	-0.040894	-0.25574	0.022278	-0.028229	-0.062256	-0.048218	-0.023346	-0.06073	0.002136	-0.086365	0.002289	0.11688	0.059814	-0.002136	-0.021057
24.947	0.016937	-0.060577	0.023041	0.004425	0.040283	0.14832	-0.043488	-0.025482	-0.013733	-0.062561	-0.006866	0.019226	0.30731	0.04303	-0.001526	0.006866	-0.002441	-0.076141	-0.22476	0.09613	-0.023041	-0.034485	-0.14389	0.025177	-0.090485	0.005798	0.18982	-0.000305	0.10132	0.025635	-0.00351	-0.013428
24.948	0.014648	-0.041809	-0.014496	0.005188	0.018921	0.24399	-0.001068	-0.019989	-0.036011	-0.070953	0.010223	0.016174	0.033417	0.00473	0.024414	0.017395	0.00351	-0.045929	-0.12009	0.13733	-0.032196	-0.031891	-0.14557	0.058746	-0.094299	0.000458	0.49728	0.002136	-0.00946	0.033569	-0.008545	-0.006409
24.949	0.01358	-0.042267	-0.009308	0.003204	-0.003815	0.27176	-0.00473	-0.014038	0.006561	-0.018158	0.020905	0.007935	-0.1976	0.010376	0.010986	-0.004425	0.015564	-0.038605	-0.053864	0.11688	-0.050507	-0.041504	-0.10056	0.022888	-0.090637	-0.00885	0.32791	-0.001068	-0.4686	0.050507	-0.002441	-0.018616
24.95	0.006104	-0.052795	0.014038	0.011292	-0.016937	0.21286	0.014343	-0.010834	0.0177	-0.013123	0.038147	0.007477	-0.1976	-0.017242	0.003357	0.002289	0.008545	-0.050201	-0.27741	0.005493	-0.032043	-0.052948	-0.097961	0.003052	-0.08316	-0.004578	0.03418	-0.001678	-0.49515	0.046844	0.003967	-0.008698
24.951	0.010834	-0.054321	-0.001068	0.00351	-0.02182	0.076447	0.025024	-0.013123	0.023956	-0.033722	0.019836	0.000763	-0.14374	-0.030212	-0.010223	-0.006256	-0.002899	-0.010681	-0.27908	-0.061798	-0.066376	-0.053406	-0.058136	0.00061	-0.12253	-0.004578	-0.096588	-0.009003	-0.41794	0.03952	-0.003662	-0.003967
24.952	0.004578	-0.066223	-0.005493	-0.006561	-0.018921	-0.046692	0.007172	-0.009155	0.023804	-0.044861	0.010071	0.004578	-0.002289	-0.088959	-0.02655	0.002594	0.00412	-0.007019	-0.18402	-0.13245	-0.092621	-0.062561	0.022736	-0.037689	-0.13626	-0.005341	-0.059357	-0.001984	0.17136	0.067139	-0.005951	-0.000153
24.953	0.005188	-0.0177	0.018311	-0.021515	-0.029449	-0.18662	0.008698	-0.005341	0.003967	-0.026398	0.021362	0.009155	0.042419	-0.035248	-0.026398	0.007782	0.003357	0.006866	-0.16419	-0.14496	-0.063934	-0.07431	-0.014954	-0.14221	-0.13397	-0.001678	0.1152	-0.002289	0.67184	0.061646	-0.002289	-0.000916
24.954	-0.000763	0.004425	0.052643	-0.001221	-0.021667	-0.26215	-0.015411	-0.01358	-0.036163	-0.020142	0.006561	0.001831	-0.009766	-0.053711	-0.036011	0.002289	0.014496	0.011597	-0.16022	-0.10544	-0.11612	-0.054626	-0.12985	-0.15274	-0.070038	-0.004883	0.11978	-0.00473	0.36743	0.030212	0.000458	-0.001068
24.955	-0.003204	0.040436	0.076447	0.049896	-0.00412	-0.16876	0.010681	-0.026093	-0.038605	-0.012512	0.014038	0.008087	-0.022583	-0.068054	-0.040283	0.001373	0.007019	0.049286	-0.083771	-0.02594	-0.20004	-0.020752	-0.22308	-0.037079	0.023956	-0.006866	-0.11993	-0.010223	0.16602	0.018463	0.000763	-0.002289
